<?xml version="1.0" encoding="utf-8"?>
<!-- Generator: Adobe Illustrator 19.1.0, SVG Export Plug-In . SVG Version: 6.00 Build 0)  -->
<svg version="1.1" id="Layer_1" xmlns="http://www.w3.org/2000/svg" xmlns:xlink="http://www.w3.org/1999/xlink" x="0px" y="0px"
	 viewBox="0 0 702 120" style="enable-background:new 0 0 702 120;" xml:space="preserve">
<style type="text/css">
	.st0{fill:#E23B3B;}
	.st1{fill:#71CEE6;}
	.st2{fill:#FCD537;}
	.st3{fill:#7BC249;}
</style>
<path d="M-582.5,1619.5l-19.5,1.8l33.3,36.5l1.8,1.9l-1.1,2.4l-18.7,41.2l-1.1,2.3h-2.6H-649h-6.5l2.9-5.8l13.7-27.5l1.1-2.2h2.5h21
	v-2l-37.7-42.6l-2.6-3l2.9-2.7l40-36.2l1.1-1h1.5h37.5h5.9l-2.1,5.5l-11.2,28.7l-0.9,2.3L-582.5,1619.5z M-268,1664l18.5-20.2
	l1.2-1.3l-0.1-1.7l-1.6-20.9l-0.1-1.4l-1-1l-33.5-34.6l-1.2-1.2h-1.7h-48.5h-4v4v74.7l-0.5,0.2l-32.2,10.7v-6.5l24.7-7.9l2.8-0.9
	v-2.9v-21.2v-5l-4.9,1.1l-22.6,5.1v-3.5l17.4-6.5l2.6-1v-2.8v-30v-5.1l-5,1.2l-54.9,13.7l-3.1,0.8l-8.4-15.1l-1.1-2.1h-2.4h-56.5h-4
	v4v11.6h-0.1h-32.5h-4v4v52.2h-0.7v-63.4v-4h-4h-27.5h-4v4v96.2v2.4l2.1,1.1l18.7,10l0.9,0.5h1h27.5h1.9l1.2-1.4l13.7-16.2l0.2-0.2
	l0.1-0.2l5.4-8.5v30.7v4h4h28.7h4v-4V1687h13.5h1.7l1.2-1.2l23.1-23.1l2.5,40.5l0.3,4.5l4.5-0.8l64.7-12.2v12v4h4h31.2h4v-4v-18.8
	l15.2,21.2l1.9,2.6l3-1.3l37.5-16.2l5.7-2.5l-4.6-4.2L-268,1664z M737,1618.3l-29-31l-1.2-1.3h-1.7h-44.8h-4v4v82.5h-7.1l-9.6-78.5
	l-0.4-3.5h-3.5H612h-4v4v17.4l-22.8-25.8l-1.2-1.4h-1.8h-49.5h-4v4v27l-18.4-18.7l-1.2-1.2h-1.7h-38h-1.8l-1.2,1.4l-0.9,1l-28.6-10
	l-4.4-1.5l-0.8,4.6l-10.2,56.3l-8.4-24.9l-3.4-10.2l-4,10l-8.8,21.6l-6.2-52.5l-0.4-3.5h-3.6H345h-4.8l0.9,4.7l22.8,125l0.6,3.3h3.3
	h26h2.5l1.1-2.2l13.6-27.1l6.1,19.5l0.9,3l3.1-0.2l19-1l2.9-0.2l0.8-2.7l5.6-19.7l17.4,17.5l1.2,1.2h1.7h39h1.5l1.1-1l17.6-15.5
	v19.7v4h4h31.8h4v-4V1694l15.5,24.3l2.7,4.2l3.5-3.6l17.7-17.9v6.5v4h4h44.3v3.5h4h46.8h1.5l1.1-1l27-23l1.4-1.2v-1.8v-67v-1.6
	L737,1618.3z M262,1594.9l-3-0.2l-1.1,2.8l-7.8,19.8l-10.3-26.7l-0.9-2.3l-2.5-0.2l-34.9-2.9l-6.4-0.5l2.4,6l4,10.1l-13.6-15.4
	l-1.2-1.4H185h-49.5h-4v4v19.8l-10.1-10.3l-1.2-1.2h-1.7h-38h-1.8l-1.2,1.4l-15.9,18.2l-7.4-22.5l-0.7-2l-2.1-0.6l-25-7l-3.4-1
	l-1.3,3.3l-6.9,17l-5.6-16.7l-0.9-2.7H5.4h-27h-3.5l-0.5,3.5l-5.3,39.2l-24.8,5.6v-5l20.1-7.5l2.6-1v-2.8v-34v-5.1l-5,1.2
	l-62.4,15.6l-3.2,0.8l0.2,3.3l1.7,27.5l-10.4-31.6l-0.7-2l-2.1-0.6l-25-7l-3.4-1l-1.3,3.3l-6.9,17l-5.6-16.7l-0.9-2.7h-2.9h-27h-3.5
	l-0.5,3.5l-17,125l-0.6,4.5h4.6h35h4.1l-0.1-4.1l-0.6-37.2l10.8,31.6l3.8,11.1l3.8-11.1l16.5-48.7l12.8,55.3l1.3,5.7l4.8-3.3
	l16-10.8l0.4,5.8l0.3,4.5l4.5-0.8l50-9.4l-0.9,7l-0.6,4.5h4.6h35h4.1l-0.1-4.1l-0.6-37.2l10.8,31.6l3.8,11.1l3.8-11.1l16.5-48.7
	l12.8,55.3l1.3,5.7l4.8-3.3l18.9-12.8l5.2,5.2l1.2,1.2h1.7h39h1.5l1.1-1l9.3-8.2v11.1v4h4h31.8h4v-4v-18.1l15.5,24.3l2.7,4.2
	l3.5-3.6l30-30.4l-2,23.4l-0.3,3.9l3.9,0.4l34.8,3.9l4.2,0.5l0.2-4.3l2.5-53.7l36.5-57.6l3.5-5.6l-6.6-0.6L262,1594.9z"/>
<g>
	<g>
		<polygon class="st0" points="-662.3,1693.7 -646.6,1662.2 -622.3,1662.2 -622.3,1657.5 -661.9,1612.9 -619.9,1574.8 
			-578.7,1574.8 -591.5,1607.4 -616.2,1609.7 -579.3,1650.1 -599.1,1693.7 		"/>
		<path d="M-581.6,1576.8l-11.2,28.7l-27.5,2.5l38.7,42.5l-18.7,41.2h-58.7l13.7-27.5h25v-7.5l-38.7-43.7l40-36.2H-581.6
			 M-575.8,1572.8h-5.9h-37.5h-1.5l-1.1,1l-40,36.2l-2.9,2.7l2.6,3l37.7,42.6v2h-21h-2.5l-1.1,2.2l-13.7,27.5l-2.9,5.8h6.5h58.7h2.6
			l1.1-2.3l18.7-41.2l1.1-2.4l-1.8-1.9l-33.3-36.5l19.5-1.8l2.5-0.2l0.9-2.3l11.2-28.7L-575.8,1572.8L-575.8,1572.8z"/>
	</g>
	<g>
		<polygon class="st1" points="-548.7,1689.3 -568.9,1678.6 -568.9,1579.2 -537.5,1579.2 -537.5,1646.6 -532.7,1646.6 
			-532.7,1590.4 -496.2,1590.4 -496.2,1658 -505.4,1672.3 -519.8,1689.3 		"/>
		<path d="M-539.5,1581.2v67.4h8.7v-56.2h32.5v64.9l-8.7,13.7l-13.7,16.2h-27.5l-18.7-10v-96.2H-539.5 M-535.5,1577.2h-4h-27.5h-4v4
			v96.2v2.4l2.1,1.1l18.7,10l0.9,0.5h1h27.5h1.9l1.2-1.4l13.7-16.2l0.2-0.2l0.1-0.2l8.7-13.7l0.6-1v-1.2v-64.9v-4h-4h-32.5h-4v4
			v52.2h-0.7v-63.4V1577.2L-535.5,1577.2z"/>
	</g>
	<g>
		<polygon class="st2" points="-423.9,1591.5 -364.8,1576.8 -364.8,1610.7 -384.8,1618.2 -384.8,1625.5 -357.3,1619.3 
			-357.3,1644.5 -384.8,1653.2 -384.8,1664 -347.3,1651.5 -347.3,1682.1 -417.4,1695.4 		"/>
		<g>
			<path d="M-366.8,1579.3v30l-20,7.5v11.2l27.5-6.2v21.2l-27.5,8.7v15l37.5-12.5v26.2l-66.2,12.5l-6.2-99.9L-366.8,1579.3
				 M-362.8,1574.2l-5,1.2l-54.9,13.7l-3.2,0.8l0.2,3.3l6.2,99.9l0.3,4.5l4.5-0.8l66.2-12.5l3.3-0.6v-3.3v-26.2v-5.5l-5.3,1.8
				l-32.2,10.7v-6.5l24.7-7.9l2.8-0.9v-2.9v-21.2v-5l-4.9,1.1l-22.6,5.1v-3.5l17.4-6.5l2.6-1v-2.8v-30V1574.2L-362.8,1574.2z"/>
		</g>
	</g>
	<g>
		<g>
			<path class="st3" d="M-496.2,1697.5v-122.6h59.7l16.8,30.2v42.6l-27.4,27.4h-16.3v22.5H-496.2z M-462.2,1640.9l19.5-18.3h-19.5
				V1640.9z"/>
		</g>
		<g>
			<path d="M-437.7,1576.8l16,28.7v41.2L-448,1673h-17.5v22.5h-28.7v-118.6H-437.7 M-437.7,1620.5h-26.5v25L-437.7,1620.5
				 M-435.4,1572.8h-2.4h-56.5h-4v4v118.6v4h4h28.7h4v-4V1677h13.5h1.7l1.2-1.2l26.2-26.2l1.2-1.2v-1.7v-41.2v-1l-0.5-0.9l-16-28.7
				L-435.4,1572.8L-435.4,1572.8z M-460.2,1624.5h12.4l-12.4,11.7V1624.5L-460.2,1624.5z"/>
		</g>
	</g>
	<g>
		<g>
			<path class="st1" d="M-312.9,1671.7v27h-35.2v-125.1h51.4l34.6,35.8l1.7,22.5l-20.5,22.3l29.5,27l-41.8,18.1L-312.9,1671.7z
				 M-312.9,1638.9l16.1-18.8h-16.1V1638.9z"/>
		</g>
		<g>
			<path d="M-297.6,1575.6l33.5,34.6l1.6,20.9l-21.2,23.1l28.7,26.2l-37.5,16.2l-22.5-31.2v31.2h-31.2v-121.1H-297.6 M-292.4,1618
				h-22.5v26.2L-292.4,1618 M-295.9,1571.6h-1.7h-48.5h-4v4v121.1v4h4h31.2h4v-4v-18.8l15.2,21.2l1.9,2.6l3-1.3l37.5-16.2l5.7-2.5
				l-4.6-4.2L-278,1654l18.5-20.2l1.2-1.3l-0.1-1.7l-1.6-20.9l-0.1-1.4l-1-1l-33.5-34.6L-295.9,1571.6L-295.9,1571.6z M-310.9,1622
				h9.8l-9.8,11.4V1622L-310.9,1622z"/>
		</g>
	</g>
</g>
<g>
	<g>
		<path class="st3" d="M648.3,1703v-125h47.7l30.1,32.2v68.7l-28.3,24.1H648.3z M684.1,1649.8l7.5-0.7l5.4-5.9v-8.4l-7.4-7.8h-5.6
			V1649.8z"/>
		<path d="M695.1,1580l29,31v67l-27,23h-46.8v-121H695.1 M682.1,1652l10.5-1l6.5-7v-10l-8.5-9h-8.5V1652 M696.8,1576h-1.7h-44.8h-4
			v4v121v4h4h46.8h1.5l1.1-1l27-23l1.4-1.2v-1.8v-67v-1.6l-1.1-1.2l-29-31L696.8,1576L696.8,1576z M686.1,1629h2.8l6.2,6.6v6.8
			l-4.4,4.7l-4.6,0.4V1629L686.1,1629z"/>
	</g>
	<g>
		<polygon class="st0" points="600,1699.5 600,1582.5 627.3,1582.5 637.4,1664.5 667.6,1664.5 667.6,1699.5 		"/>
		<path d="M625.6,1584.5l10,82h30v31H602v-113H625.6 M629.1,1580.5h-3.5H602h-4v4v113v4h4h63.6h4v-4v-31v-4h-4h-26.4l-9.6-78.5
			L629.1,1580.5L629.1,1580.5z"/>
	</g>
	<g>
		<path class="st3" d="M556.5,1677.2v27h-35.8v-127.4h52.4l32.3,36.5v22.7l-16.3,22.5l21.5,16.9l-33.5,33.9L556.5,1677.2z
			 M554.5,1637.3l16.6-19.3h-16.6V1637.3z"/>
		<path d="M572.2,1578.8l31.2,35.3v21.3l-17,23.5l21.3,16.7l-30.2,30.6l-22.9-35.8v31.8h-31.8v-123.4H572.2 M575.4,1616h-22.9v26.7
			L575.4,1616 M574,1574.8h-1.8h-49.5h-4v4v123.4v4h4h31.8h4v-4V1684l15.5,24.3l2.7,4.2l3.5-3.6l30.2-30.6l3.1-3.2l-3.5-2.8
			l-18.2-14.3l14.8-20.4l0.8-1v-1.3v-21.3v-1.5l-1-1.1l-31.2-35.3L574,1574.8L574,1574.8z M556.5,1620h10.2l-10.2,11.9V1620
			L556.5,1620z"/>
	</g>
	<g>
		<path class="st1" d="M458.7,1697l-23.2-23.2v-59.6l23.1-26.4h39.7l25.9,26.3v60.7l-25,22.1H458.7z M478.7,1655.2l14.9-13.7
			l-14.9-15.4l-11.6,15.4L478.7,1655.2z"/>
		<path d="M497.5,1589.9l24.8,25.2v59l-23.8,21h-39l-22-22v-58l22-25.1H497.5 M478.5,1658l18-16.5l-18-18.5l-14,18.5L478.5,1658
			 M499.2,1585.9h-1.7h-38h-1.8l-1.2,1.4l-22,25.1l-1,1.1v1.5v58v1.7l1.2,1.2l22,22l1.2,1.2h1.7h39h1.5l1.1-1l23.8-21l1.4-1.2v-1.8
			v-59v-1.6l-1.1-1.2l-24.8-25.2L499.2,1585.9L499.2,1585.9z M469.6,1641.4l9.3-12.2l11.9,12.2l-11.9,10.9L469.6,1641.4
			L469.6,1641.4z"/>
	</g>
	<g>
		<polygon class="st2" points="356.1,1709 332.6,1580 378.5,1580 385.8,1642.1 399.6,1608.3 412.2,1645.6 424.2,1579.4 
			462.2,1592.6 431.3,1701 409.3,1702.1 401.3,1676.4 385,1709 		"/>
		<path d="M425.8,1582l34,11.9l-30,105.1l-19,1l-9-29l-18,36h-26L335,1582h41.7l8,68l14.6-36l13.4,39.5L425.8,1582 M422.7,1576.7
			l-0.8,4.6l-10.2,56.3l-8.4-24.9l-3.4-10.2l-4,10l-8.8,21.6l-6.2-52.5l-0.4-3.5h-3.6H335h-4.8l0.9,4.7l22.8,125l0.6,3.3h3.3h26h2.5
			l1.1-2.2l13.6-27.1l6.1,19.5l0.9,3l3.1-0.2l19-1l2.9-0.2l0.8-2.7l30-105.1l1-3.6l-3.6-1.2l-34-11.9L422.7,1576.7L422.7,1576.7z"/>
	</g>
</g>
<g>
	<path d="M67.8,47.1L59,48l15.2,18.4l0.8,1l-0.5,1.2l-8.5,20.8l-0.5,1.2h-1.2H37.6h-2.9l1.3-2.9l6.3-13.8l0.5-1.1h1.1h9.5v-1
		L36.2,50.2L35,48.7l1.3-1.3l18.2-18.2l0.5-0.5h0.7h17.1h2.7l-1,2.7l-5.1,14.5L69,47L67.8,47.1z M211,69.5l8.4-10.1l0.5-0.6
		l-0.1-0.9l-0.7-10.5l0-0.7l-0.5-0.5l-15.3-17.4l-0.5-0.6h-0.8H180h-1.8v2v37.6l-0.2,0.1l-14.7,5.4v-3.3l11.2-4l1.3-0.4V64V53.3
		v-2.5l-2.2,0.6l-10.3,2.6v-1.7l7.9-3.3l1.2-0.5V47V31.9v-2.6l-2.3,0.6l-25,6.9l-1.4,0.4l-3.8-7.6l-0.5-1h-1.1h-25.7h-1.8v2v5.8h0
		H96h-1.8v2v26.3h-0.3V32.9v-2H92H79.5h-1.8v2v48.4v1.2l1,0.6l8.5,5l0.4,0.2H88h12.5h0.8l0.5-0.7l6.3-8.2l0.1-0.1l0.1-0.1l2.5-4.3
		v15.5v2h1.8h13.1h1.8v-2v-9.3h6.1h0.8l0.5-0.6l10.5-11.6l1.2,20.4l0.1,2.3l2-0.4l29.4-6.1V91v2h1.8h14.2h1.8v-2v-9.5l6.9,10.7
		l0.9,1.3l1.3-0.6l17.1-8.2l2.6-1.2l-2.1-2.1L211,69.5z M668.5,46.5l-13.2-15.6l-0.5-0.6H654h-20.4h-1.8v2v41.5h-3.3l-4.4-39.5
		l-0.2-1.8h-1.6h-10.7h-1.8v2v8.8l-10.4-13l-0.5-0.7H598h-22.5h-1.8v2v13.6l-8.4-9.4l-0.5-0.6h-0.8h-17.3h-0.8l-0.5,0.7l-0.4,0.5
		l-13-5l-2-0.8l-0.4,2.3l-4.7,28.4l-3.8-12.5l-1.6-5.1l-1.8,5l-4,10.9L510.9,33l-0.2-1.8h-1.6h-19h-2.2l0.4,2.4l10.4,63l0.3,1.7h1.5
		h11.8h1.1l0.5-1.1l6.2-13.6l2.8,9.8l0.4,1.5l1.4-0.1l8.6-0.5l1.3-0.1l0.4-1.4l2.6-9.9l7.9,8.8l0.5,0.6h0.8h17.8h0.7l0.5-0.5l8-7.8
		v9.9v2h1.8H590h1.8v-2v-9.1l7.1,12.2l1.2,2.1l1.6-1.8l8.1-9v3.3v2h1.8h20.2v1.8h1.8h21.3h0.7l0.5-0.5l12.3-11.6l0.6-0.6v-0.9V47.9
		v-0.8L668.5,46.5z M452.3,34.7l-1.4-0.1l-0.5,1.4l-3.5,10l-4.7-13.4l-0.4-1.2l-1.1-0.1l-15.9-1.5l-2.9-0.3l1.1,3l1.8,5.1l-6.2-7.8
		l-0.5-0.7h-0.8h-22.5h-1.8v2v10l-4.6-5.2l-0.5-0.6H387h-17.3h-0.8l-0.5,0.7l-7.3,9.2L357.7,34l-0.3-1l-0.9-0.3l-11.4-3.5l-1.6-0.5
		l-0.6,1.7l-3.2,8.6l-2.5-8.4l-0.4-1.4h-1.3h-12.3h-1.6l-0.2,1.7L319,50.5l-11.3,2.8v-2.5l9.1-3.8l1.2-0.5v-1.4V28v-2.6l-2.3,0.6
		l-28.4,7.9l-1.5,0.4L286,36l0.8,13.9L282,34l-0.3-1l-0.9-0.3l-11.4-3.5l-1.6-0.5l-0.6,1.7l-3.2,8.6l-2.5-8.4l-0.4-1.4h-1.3h-12.3
		h-1.6l-0.2,1.7l-7.7,63l-0.3,2.3h2.1h15.9h1.9l0-2l-0.3-18.7l4.9,15.9l1.7,5.6l1.7-5.6l7.5-24.5l5.8,27.9l0.6,2.9l2.2-1.6l7.3-5.5
		l0.2,2.9l0.1,2.3l2-0.4l22.7-4.7l-0.4,3.5l-0.3,2.3h2.1h15.9h1.9l0-2l-0.3-18.7l4.9,15.9l1.7,5.6l1.7-5.6l7.5-24.5l5.8,27.9
		l0.6,2.9l2.2-1.6l8.6-6.5l2.4,2.6l0.5,0.6h0.8h17.8h0.7l0.5-0.5l4.2-4.1v5.6v2h1.8h14.5h1.8v-2v-9.1l7.1,12.2l1.2,2.1l1.6-1.8
		l13.7-15.3l-0.9,11.8l-0.1,2l1.8,0.2l15.8,1.9l1.9,0.2l0.1-2.1l1.2-27.1l16.6-29l1.6-2.8l-3-0.3L452.3,34.7z"/>
	<g>
		<g>
			<polygon class="st0" points="31.5,84.5 38.6,68.6 49.6,68.6 49.6,66.2 31.7,43.8 50.8,24.6 69.7,24.6 63.9,41 52.6,42.1 
				69.4,62.5 60.4,84.5 			"/>
			<path d="M68.2,25.6l-5.1,14.5l-12.5,1.3l17.6,21.4l-8.5,20.8H33l6.3-13.8h11.4v-3.8L33,43.9l18.2-18.2H68.2 M71.1,23.6h-2.8H51.2
				h-0.8l-0.6,0.6L31.6,42.4l-1.3,1.3l1.1,1.4l17.2,21.5v1.1h-9.4H38l-0.5,1.2l-6.3,13.8l-1.3,2.8H33h26.7h1.3l0.5-1.2l8.5-20.8
				l0.5-1.1l-0.8-0.9L54.5,43l8.8-0.9l1.3-0.1l0.4-1.2l5.1-14.5L71.1,23.6L71.1,23.6z"/>
		</g>
		<g>
			<polygon class="st1" points="83.2,82.3 73.9,76.8 73.9,26.8 88.4,26.8 88.4,60.8 90.4,60.8 90.4,32.5 107.2,32.5 107.2,66.4 
				103.1,73.7 96.5,82.3 			"/>
			<path d="M87.4,27.8v34h4V33.5h14.8v32.7l-4,6.9L96,81.3H83.5l-8.5-5V27.8H87.4 M89.4,25.8h-2H74.9h-2v2v48.4v1.1l1,0.6l8.5,5
				l0.5,0.3h0.5H96h1l0.6-0.8l6.3-8.2l0.1-0.1l0.1-0.1l4-6.9l0.3-0.5v-0.5V33.5v-2h-2H91.4h-2v-3.7V25.8L89.4,25.8z"/>
		</g>
		<g>
			<polygon class="st2" points="140,33 167,25.6 167,42.6 157.9,46.4 157.9,50.1 170.4,47 170.4,59.7 157.9,64.1 157.9,69.5 
				175,63.2 175,78.6 142.9,85.3 			"/>
			<g>
				<path d="M166,26.9V42l-9.1,3.8v5.7l12.5-3.1v10.7l-12.5,4.4v7.5l17.1-6.3v13.2l-30.1,6.3L141,33.8L166,26.9 M168,24.2l-2.5,0.7
					l-25,6.9l-1.6,0.4l0.1,1.6l2.8,50.3l0.1,2.3l2.3-0.5l30.1-6.3l1.6-0.3v-1.6V64.6v-2.9l-2.7,1L158.9,68v-3.3l11.2-3.9l1.3-0.5
					v-1.4V48.3v-2.6l-2.5,0.6l-10,2.5v-1.8l7.9-3.3l1.2-0.5V42V26.9V24.2L168,24.2z"/>
			</g>
		</g>
		<g>
			<g>
				<path class="st3" d="M107.1,86.4V24.6h27.3l7.6,15.2v21.4L129.5,75h-7.4v11.3H107.1z M122.7,57.7l8.7-9.1h-8.7V57.7z"/>
			</g>
			<g>
				<path d="M133.8,25.6l7.3,14.5v20.8L129.1,74h-8v11.3h-13.1V25.6H133.8 M133.8,47.6h-12.1v12.6L133.8,47.6 M135,23.6h-1.2h-25.7
					h-2v2v59.7v2h2h13.1h2v-2V76h6h0.9l0.6-0.7l11.9-13.2l0.5-0.6v-0.8V40.1v-0.5l-0.2-0.4l-7.3-14.5L135,23.6L135,23.6z
					 M123.7,49.6h5.4l-5.4,5.6V49.6L123.7,49.6z"/>
			</g>
		</g>
		<g>
			<g>
				<path class="st1" d="M190.7,73.6V87h-16.2V24H198l15.8,18l0.8,11.3l-9.3,11.2l13.4,13.6l-19.1,9.2L190.7,73.6z M190.7,56.6
					l7.2-9.3h-7.2V56.6z"/>
			</g>
			<g>
				<path d="M197.6,25l15.3,17.4l0.7,10.5l-9.7,11.6L217,77.8L199.9,86l-10.2-15.7V86h-14.2V25H197.6 M199.9,46.4h-10.2v13.2
					L199.9,46.4 M198.5,23h-0.9h-22.1h-2v2v61v2h2h14.2h2v-2v-9l6.6,10.1l1,1.5l1.6-0.8l17.1-8.2l2.5-1.2l-2-2l-11.8-11.9l8.5-10.2
					l0.5-0.6l-0.1-0.8l-0.7-10.5l0-0.7l-0.4-0.5l-15.3-17.4L198.5,23L198.5,23z M191.7,48.4h4.2l-4.2,5.4V48.4L191.7,48.4z"/>
			</g>
		</g>
	</g>
	<g>
		<g>
			<path class="st3" d="M628,89.2V26.2h21.9l13.7,16.2V77l-12.9,12.2H628z M644.5,62.4l3.3-0.3l2.5-2.9v-4.3l-3.3-3.9h-2.4V62.4z"/>
			<path d="M649.4,27.2l13.2,15.6v33.7l-12.3,11.6H629V27.2H649.4 M643.5,63.5l4.8-0.5l3-3.5v-5l-3.9-4.5h-3.9V63.5 M650.3,25.2
				h-0.9H629h-2v2v60.9v2h2h21.3h0.8l0.6-0.5L664,78l0.6-0.6v-0.9V42.8v-0.7l-0.5-0.6l-13.2-15.6L650.3,25.2L650.3,25.2z
				 M645.5,51.9h0.9l2.8,3.3v3.6l-2,2.3l-1.8,0.2V51.9L645.5,51.9z"/>
		</g>
		<g>
			<polygon class="st0" points="606,87.4 606,28.5 618.7,28.5 623.2,69.8 637,69.8 637,87.4 			"/>
			<path d="M617.8,29.5l4.6,41.3H636v15.6h-29V29.5H617.8 M619.6,27.5h-1.8H607h-2v2v56.9v2h2h29h2v-2V70.8v-2h-2h-11.9l-4.4-39.5
				L619.6,27.5L619.6,27.5z"/>
		</g>
		<g>
			<path class="st3" d="M586.5,76.4v13.3H570V25.6h24L608.7,44v11.4l-7.4,11.4l9.8,8.5l-15.3,17.2L586.5,76.4z M585.5,55.9l7.4-9.5
				h-7.4V55.9z"/>
			<path d="M593.5,26.6l14.2,17.8v10.7l-7.7,11.9l9.7,8.4l-13.7,15.4l-10.4-18v16H571V26.6H593.5 M595,45.3h-10.4v13.5L595,45.3
				 M594.5,24.6h-1H571h-2v2v62.2v2h2h14.5h2v-2v-8.6l6.7,11.6l1.4,2.4l1.8-2.1l13.7-15.4l1.3-1.5l-1.5-1.3l-8.4-7.3l6.8-10.4
				l0.3-0.5v-0.6V44.4v-0.7l-0.4-0.5l-14.2-17.8L594.5,24.6L594.5,24.6z M586.5,47.3h4.3l-4.3,5.6V47.3L586.5,47.3z"/>
		</g>
		<g>
			<path class="st1" d="M541.8,86.1l-10.6-11.7V44.5l10.5-13.3h18.2l11.8,13.3V75l-11.4,11.2H541.8z M550.9,65l6.7-6.8l-6.7-7.7
				l-5.2,7.7L550.9,65z"/>
			<path d="M559.5,32.2l11.3,12.7v29.7l-10.8,10.6h-17.8l-10-11.1V44.9l10-12.7H559.5 M550.8,66.5l8.2-8.3l-8.2-9.3l-6.4,9.3
				L550.8,66.5 M560.4,30.2h-0.9h-17.3h-1l-0.6,0.8l-10,12.7l-0.4,0.5v0.7v29.2v0.8l0.5,0.6l10,11.1l0.6,0.7h0.9h17.8h0.8l0.6-0.6
				L572.2,76l0.6-0.6v-0.8V44.9v-0.8l-0.5-0.6L561,30.9L560.4,30.2L560.4,30.2z M546.9,58.1l4.1-6l5.3,6l-5.3,5.3L546.9,58.1
				L546.9,58.1z"/>
		</g>
		<g>
			<polygon class="st2" points="495,92.2 484.3,27.2 505.4,27.2 508.7,58.1 514.9,41.2 520.6,59.9 526,26.9 543.5,33.6 529.4,88.1 
				519.3,88.7 515.7,76 508.4,92.2 			"/>
			<path d="M526.8,28.2l15.5,6l-13.7,53l-8.6,0.5l-4.1-14.6l-8.2,18.1h-11.8l-10.4-63h19l3.6,34.2l6.7-18.1l6.1,19.9L526.8,28.2
				 M525.3,25.5l-0.4,2.4l-4.5,27.6l-3.6-11.7l-1.7-5.7l-2,5.6l-3.7,10.1L506.5,28l-0.2-1.8h-1.8h-19h-2.4l0.4,2.3l10.4,63l0.3,1.7
				h1.7h11.8h1.3l0.5-1.2l5.9-13.1l2.6,9.3l0.4,1.6l1.6-0.1l8.6-0.5l1.5-0.1l0.4-1.4l13.7-53l0.4-1.7l-1.7-0.6l-15.5-6L525.3,25.5
				L525.3,25.5z"/>
		</g>
	</g>
	<g>
		<g>
			<polygon class="st1" points="429.9,89.3 431.9,62.5 418.6,25.6 436.7,27.3 442.3,43.5 446.9,30.6 466.5,32.4 448.9,63.1 
				447.7,91.5 			"/>
			<path d="M420.1,26.7l15.9,1.5l6.4,18.3l5.2-14.8l17.2,1.6L448,62.8l-1.2,27.6l-15.8-1.9l2-26.1L420.1,26.7 M417.1,24.5l1.1,3
				l12.7,35.2l-2,25.7l-0.1,1.9l1.9,0.2l15.8,1.9l2.1,0.3l0.1-2.2l1.2-27.1l16.6-29.1l1.5-2.7l-3.1-0.3l-17.2-1.6l-1.6-0.1l-0.5,1.5
				l-3.3,9.4l-4.5-12.9l-0.4-1.2l-1.3-0.1l-15.9-1.5L417.1,24.5L417.1,24.5z"/>
		</g>
		<g>
			<path class="st3" d="M405.6,76v13.3h-16.5V25.2h24l14.7,18.4V55l-7.4,11.4l9.8,8.5L414.9,92L405.6,76z M404.7,54.6l5-8.7h-5V54.6
				z"/>
			<path d="M412.7,26.2l14.2,17.8v10.7l-7.7,11.9l9.7,8.4l-13.7,15.4l-10.4-18v16h-14.5V26.2H412.7 M411.4,44.9h-7.7v13.5
				L411.4,44.9 M413.6,24.2h-1h-22.5h-2v2v62.2v2h2h14.5h2v-2v-8.6l6.7,11.6l1.4,2.4l1.8-2.1l13.7-15.4l1.3-1.5l-1.5-1.3l-8.4-7.3
				l6.8-10.4l0.3-0.5v-0.6V43.9v-0.7l-0.4-0.5l-14.2-17.8L413.6,24.2L413.6,24.2z M405.7,46.9h2.2l-2.2,3.9V46.9L405.7,46.9z"/>
		</g>
		<g>
			<path class="st0" d="M364.7,86.4l-10.6-11.7V44.7l10.5-13.3h18.2l11.8,13.3v30.5l-11.4,11.2H364.7z M373.9,65.2l6.7-6.8l-6.7-7.7
				l-5.2,7.7L373.9,65.2z"/>
			<path d="M382.4,32.4l11.3,12.7v29.7l-10.8,10.6h-17.8l-10-11.1V45.1l10-12.7H382.4 M373.8,66.7l8.2-8.3l-8.2-9.3l-6.4,9.3
				L373.8,66.7 M383.3,30.4h-0.9h-17.3h-1l-0.6,0.8l-10,12.7l-0.4,0.5v0.7v29.2v0.8l0.5,0.6l10,11.1l0.6,0.7h0.9h17.8h0.8l0.6-0.6
				l10.8-10.6l0.6-0.6v-0.8V45.1v-0.8l-0.5-0.6l-11.3-12.7L383.3,30.4L383.3,30.4z M369.9,58.4l4.1-6l5.3,6l-5.3,5.3L369.9,58.4
				L369.9,58.4z"/>
		</g>
		<g>
			<polygon class="st2" points="344.4,58.2 335,88.9 327.5,64.4 327.8,90 309.8,90 317.7,25 331.7,25 335.1,36.5 339.4,24.8 
				352.2,28.8 367.1,78.8 351.2,90.7 			"/>
			<g>
				<path d="M340,26l11.4,3.5L366,78.4L351.9,89l-7.3-34.8L335,85.5l-8.6-28l0.5,31.5h-15.9l7.7-63h12.3l4.1,13.6L340,26
					 M338.8,23.6l-0.7,1.8l-2.9,8l-2.4-7.9l-0.4-1.4h-1.5h-12.3h-1.8l-0.2,1.8l-7.7,63l-0.3,2.2h2.3h15.9h2l0-2l-0.3-17.6l4.5,14.7
					l1.9,6.2l1.9-6.2l7.3-23.8l5.7,27.1l0.6,3.1l2.5-1.9L367.2,80l1.1-0.8l-0.4-1.3L353.3,29l-0.3-1l-1-0.3l-11.4-3.5L338.8,23.6
					L338.8,23.6z"/>
			</g>
		</g>
		<g>
			<polygon class="st1" points="282.2,30.1 312.6,21.7 312.6,40.8 302.3,45.1 302.3,49.6 316.5,46 316.5,60.1 302.3,65.1 
				302.3,71.5 321.6,64.4 321.6,81.6 285.5,89.2 			"/>
			<path d="M311.6,23v17.1l-10.3,4.3v6.4l14.2-3.6v12.1l-14.2,5V73l19.4-7.1v15L286.4,88l-3.2-57.1L311.6,23 M313.6,20.4l-2.5,0.7
				l-28.4,7.9l-1.6,0.4l0.1,1.6l3.2,57.1l0.1,2.3l2.3-0.5l34.2-7.1l1.6-0.3v-1.6v-15V63l-2.7,1l-16.7,6.1v-4.3l12.9-4.5l1.3-0.5
				v-1.4V47.3v-2.6l-2.5,0.6l-11.7,2.9v-2.5l9.1-3.8l1.2-0.5v-1.3V23V20.4L313.6,20.4z"/>
		</g>
		<g>
			<polygon class="st3" points="268.7,58.2 259.3,88.9 251.8,64.4 252.1,90 234.1,90 242,25 256,25 259.4,36.5 263.7,24.8 
				276.5,28.8 291.4,78.8 275.5,90.7 			"/>
			<path d="M264.3,26l11.4,3.5l14.6,48.9L276.2,89l-7.3-34.8l-9.6,31.2l-8.6-28l0.5,31.5h-15.9l7.7-63h12.3l4.1,13.6L264.3,26
				 M263.1,23.6l-0.7,1.8l-2.9,8l-2.4-7.9l-0.4-1.4h-1.5h-12.3h-1.8l-0.2,1.8l-7.7,63l-0.3,2.2h2.3h15.9h2l0-2l-0.3-17.6l4.5,14.7
				l1.9,6.2l1.9-6.2l7.3-23.8l5.7,27.1l0.6,3.1l2.5-1.9L291.5,80l1.1-0.8l-0.4-1.3L277.6,29l-0.3-1l-1-0.3l-11.4-3.5L263.1,23.6
				L263.1,23.6z"/>
		</g>
	</g>
</g>
<g>
	<g>
		<polygon class="st1" points="212.9,1703.3 217.4,1650 188.2,1576.8 227.6,1580.1 240.2,1612.8 250.3,1586.8 293,1590.4 
			254.5,1651.2 251.8,1707.6 		"/>
		<path d="M191.3,1579.1l34.9,2.9l14,36.3l11.5-29.4l37.9,3.2l-37,58.5l-2.6,54.8l-34.8-3.9l4.4-51.8L191.3,1579.1 M185.2,1574.6
			l2.4,6l27.8,69.8l-4.3,50.9l-0.3,3.9l3.9,0.4l34.8,3.9l4.2,0.5l0.2-4.3l2.5-53.7l36.5-57.6l3.5-5.6l-6.6-0.6l-37.9-3.2l-3-0.2
			l-1.1,2.8l-7.8,19.8l-10.3-26.7l-0.9-2.3l-2.5-0.2l-34.9-2.9L185.2,1574.6L185.2,1574.6z"/>
	</g>
	<g>
		<path class="st3" d="M159.3,1676.4v27h-35.8v-127.4h52.4l32.3,36.5v22.7l-16.3,22.5l21.5,16.9l-33.5,33.9L159.3,1676.4z
			 M157.3,1635l11.3-17.8h-11.3V1635z"/>
		<path d="M175,1577.9l31.2,35.3v21.3l-17,23.5l21.3,16.7l-30.2,30.6l-22.9-35.8v31.8h-31.8v-123.4H175 M172.2,1615.2h-16.9v26.7
			L172.2,1615.2 M176.8,1573.9H175h-49.5h-4v4v123.4v4h4h31.8h4v-4v-18.1l15.5,24.3l2.7,4.2l3.5-3.6l30.2-30.6l3.1-3.2l-3.5-2.8
			l-18.2-14.3l14.8-20.4l0.8-1v-1.3v-21.3v-1.5l-1-1.1l-31.2-35.3L176.8,1573.9L176.8,1573.9z M159.3,1619.2h5.6l-5.6,8.9V1619.2
			L159.3,1619.2z"/>
	</g>
	<g>
		<path class="st0" d="M69.8,1697.5l-23.2-23.2v-59.6l23.1-26.4h39.7l25.9,26.3v60.7l-25,22.1H69.8z M89.8,1655.6l14.9-13.7
			l-14.9-15.4l-11.6,15.4L89.8,1655.6z"/>
		<path d="M108.6,1590.3l24.8,25.2v59l-23.8,21h-39l-22-22v-58l22-25.1H108.6 M89.6,1658.5l18-16.5l-18-18.5l-14,18.5L89.6,1658.5
			 M110.3,1586.3h-1.7h-38h-1.8l-1.2,1.4l-22,25.1l-1,1.1v1.5v58v1.7l1.2,1.2l22,22l1.2,1.2h1.7h39h1.5l1.1-1l23.8-21l1.4-1.2v-1.8
			v-59v-1.6l-1.1-1.2l-24.8-25.2L110.3,1586.3L110.3,1586.3z M80.7,1641.8l9.3-12.2l11.9,12.2l-11.9,10.9L80.7,1641.8L80.7,1641.8z"
			/>
	</g>
	<g>
		<polygon class="st2" points="25,1640.9 4.4,1701.9 -12.4,1652.8 -11.6,1704.7 -50.9,1704.7 -33.3,1575.7 -3.2,1575.7 4.6,1598.9 
			14.2,1575.2 42,1583 74.8,1682.5 40.1,1705.9 		"/>
		<g>
			<path d="M15.4,1577.7l25,7l32,97l-31,21l-16-69l-21,62l-19-55.5l1,62.5h-35l17-125h27l9,27L15.4,1577.7 M13,1572.8l-1.3,3.3
				l-6.9,17l-5.6-16.7l-0.9-2.7h-2.9h-27h-3.5l-0.5,3.5l-17,125l-0.6,4.5h4.6h35h4.1l-0.1-4.1l-0.6-37.2L0.6,1697l3.8,11.1l3.8-11.1
				l16.5-48.7l12.8,55.3l1.3,5.7l4.8-3.3l31-21l2.5-1.7l-0.9-2.9l-32-97l-0.7-2l-2.1-0.6l-25-7L13,1572.8L13,1572.8z"/>
		</g>
	</g>
	<g>
		<polygon class="st1" points="-111.5,1585.7 -45,1569.1 -45,1607.1 -67.7,1615.6 -67.7,1624.4 -36.5,1617.3 -36.5,1645.4 
			-67.7,1655.3 -67.7,1668.1 -25.2,1653.9 -25.2,1688.1 -104.2,1703 		"/>
		<path d="M-47,1571.6v34l-22.7,8.5v12.8l31.2-7.1v24.1l-31.2,9.9v17l42.5-14.2v29.8l-75.1,14.2l-7.1-113.4L-47,1571.6 M-43,1566.5
			l-5,1.2l-62.4,15.6l-3.2,0.8l0.2,3.3l7.1,113.4l0.3,4.5l4.5-0.8l75.1-14.2l3.3-0.6v-3.3v-29.8v-5.5l-5.3,1.8l-37.3,12.4v-8.5
			l28.4-9l2.8-0.9v-2.9v-24.1v-5l-4.9,1.1l-26.3,6v-5l20.1-7.5l2.6-1v-2.8v-34V1566.5L-43,1566.5z"/>
	</g>
	<g>
		<polygon class="st3" points="-141.3,1640.9 -161.9,1701.9 -178.7,1652.8 -177.9,1704.7 -217.2,1704.7 -199.7,1575.7 
			-169.5,1575.7 -161.7,1598.9 -152.1,1575.2 -124.3,1583 -91.5,1682.5 -126.2,1705.9 		"/>
		<path d="M-150.9,1577.7l25,7l32,97l-31,21l-16-69l-21,62l-19-55.5l1,62.5h-35l17-125h27l9,27L-150.9,1577.7 M-153.3,1572.8
			l-1.3,3.3l-6.9,17l-5.6-16.7l-0.9-2.7h-2.9h-27h-3.5l-0.5,3.5l-17,125l-0.6,4.5h4.6h35h4.1l-0.1-4.1l-0.6-37.2l10.8,31.6l3.8,11.1
			l3.8-11.1l16.5-48.7l12.8,55.3l1.3,5.7l4.8-3.3l31-21l2.5-1.7l-0.9-2.9l-32-97l-0.7-2l-2.1-0.6l-25-7L-153.3,1572.8L-153.3,1572.8
			z"/>
	</g>
</g>
</svg>
