<?xml version="1.0" encoding="utf-8"?>
<!-- Generator: Adobe Illustrator 19.1.0, SVG Export Plug-In . SVG Version: 6.00 Build 0)  -->
<svg version="1.1" id="Layer_1" xmlns="http://www.w3.org/2000/svg" xmlns:xlink="http://www.w3.org/1999/xlink" x="0px" y="0px"
	 viewBox="0 0 76 636" style="enable-background:new 0 0 76 636;" xml:space="preserve">
<style type="text/css">
	.st0{fill:#E23B3B;}
	.st1{fill:#71CEE6;}
	.st2{fill:#FCD537;}
	.st3{fill:#7BC249;}
</style>
<g>
	<path d="M51.4,38.2l-0.9-8.9L32.1,44.5l-1,0.8l-1.2-0.5L9.1,36.3L8,35.8v-1.2V7.9V5l2.9,1.3l13.8,6.3l1.1,0.5v1.1v9.5h1L48.3,6.6
		l1.5-1.2l1.3,1.3l18.2,18.2l0.5,0.5v0.7v17.1v2.7l-2.7-1l-14.5-5.1l-1.2-0.4L51.4,38.2z M29,181.4l10.1,8.4l0.6,0.5l0.9-0.1
		l10.5-0.7l0.7,0l0.5-0.5l17.4-15.3l0.6-0.5v-0.8v-22.1v-1.8h-2H30.8l-0.1-0.2l-5.4-14.7h3.3l4,11.2l0.4,1.3h1.5h10.7h2.5l-0.6-2.2
		l-2.6-10.3h1.7l3.3,7.9l0.5,1.2h1.4h15.1h2.6l-0.6-2.3l-6.9-25l-0.4-1.4l7.6-3.8l1-0.5v-1.1V83v-1.8h-2H62v0V66.3v-1.8h-2H33.7
		v-0.3h31.9h2v-1.8V49.9V48h-2H17.2H16l-0.6,1l-5,8.5l-0.2,0.4v0.5v12.5v0.8l0.7,0.5l8.2,6.3l0.1,0.1l0.1,0.1l4.3,2.5H8.1h-2V83V96
		v1.8h2h9.3v6.1v0.8l0.6,0.5l11.6,10.5L9.2,117l-2.3,0.1l0.4,2l6.1,29.4H7.5h-2v1.8v14.2v1.8h2h9.5l-10.7,6.9L5,174.2l0.6,1.3
		l8.2,17.1l1.2,2.6l2.1-2.1L29,181.4z M53,633.5l15.6-13.2l0.6-0.5V619v-20.4v-1.8h-2H25.7v-3.3l39.5-4.4L67,589v-1.6v-10.7v-1.8h-2
		h-8.8l13-10.4l0.7-0.5V563v-22.5v-1.8h-2H54.3l9.4-8.4l0.6-0.5V529v-17.3v-0.8l-0.7-0.5l-0.5-0.4l5-13l0.8-2l-2.3-0.4l-28.4-4.7
		l12.5-3.8l5.1-1.6l-5-1.8l-10.9-4l26.5-2.8l1.8-0.2v-1.6v-19v-2.2l-2.4,0.4l-63,10.4l-1.7,0.3v1.5v11.8v1.1l1.1,0.5l13.6,6.2
		l-9.8,2.8l-1.5,0.4l0.1,1.4l0.5,8.6l0.1,1.3l1.4,0.4l9.9,2.6l-8.8,7.9L7.3,511v0.8v17.8v0.7l0.5,0.5l7.8,8H5.7h-2v1.8V555v1.8h2
		h9.1l-12.2,7.1l-2.1,1.2l1.8,1.6l9,8.1H8H6v1.8v20.2H4.3v1.8v21.3v0.7l0.5,0.5l11.6,12.3l0.6,0.6h0.9h33.7h0.8L53,633.5z
		 M63.8,420.7l0.1-1.4l-1.4-0.5l-10-3.5l13.4-4.7l1.2-0.4l0.1-1.1l1.5-15.9l0.3-2.9l-3,1.1l-5.1,1.8l7.8-6.2l0.7-0.5v-0.8v-22.5
		v-1.8h-2h-10l5.2-4.6l0.6-0.5v-0.8v-17.3v-0.8l-0.7-0.5l-9.2-7.3l11.3-3.4l1-0.3l0.3-0.9l3.5-11.4l0.5-1.6l-1.7-0.6l-8.6-3.2
		l8.4-2.5l1.4-0.4v-1.3v-12.3V290l-1.7-0.2L48,287.3L45.1,276h2.5l3.8,9.1l0.5,1.2h1.4h17.1H73l-0.6-2.3l-7.9-28.4l-0.4-1.5
		l-1.7,0.1l-13.9,0.8l15.9-4.7l1-0.3l0.3-0.9l3.5-11.4l0.5-1.6l-1.7-0.6l-8.6-3.2l8.4-2.5l1.4-0.4v-1.3v-12.3v-1.6l-1.7-0.2l-63-7.7
		L2.4,206v2.1V224v1.9l2,0l18.7-0.3l-15.9,4.9l-5.6,1.7l5.6,1.7l24.5,7.5L4,247.3l-2.9,0.6l1.6,2.2l5.5,7.3l-2.9,0.2l-2.3,0.1l0.4,2
		l4.7,22.7L4.7,282l-2.3-0.3v2.1v15.9v1.9l2,0l18.7-0.3l-15.9,4.9L1.7,308l5.6,1.7l24.5,7.5L4,323l-2.9,0.6l1.6,2.2l6.5,8.6
		l-2.6,2.4l-0.6,0.5v0.8v17.8v0.7l0.5,0.5l4.1,4.2H5.1h-2v1.8v14.5v1.8h2h9.1L2,386.5l-2.1,1.2l1.8,1.6L17,402.9L5.2,402l-2-0.1
		L3,403.7l-1.9,15.8l-0.2,1.9l2.1,0.1l27.1,1.2l29,16.6l2.8,1.6l0.3-3L63.8,420.7z"/>
	<g>
		<g>
			<polygon class="st0" points="57.5,34.2 56.3,23 35.9,39.8 14,30.8 14,1.8 29.8,9 29.8,20 32.3,20 54.7,2 73.9,21.1 73.9,40 			
				"/>
			<path d="M54.6,3.4l18.2,18.2v17.1l-14.5-5.1L57.1,21L35.8,38.6L15,30.1V3.4l13.8,6.3V21h3.8L54.6,3.4 M13,0.3v3.1v26.7v1.3
				l1.2,0.5L35,40.5l1.1,0.5l0.9-0.8l18.5-15.2l0.9,8.8l0.1,1.3l1.2,0.4l14.5,5.1l2.7,0.9v-2.8V21.6v-0.8l-0.6-0.6L56,2l-1.3-1.3
				l-1.4,1.1L31.9,19h-1.1V9.6V8.3l-1.2-0.5L15.8,1.5L13,0.3L13,0.3z"/>
		</g>
		<g>
			<polygon class="st1" points="32,77.6 24.8,73.4 16.2,66.8 16.2,53.6 21.7,44.3 71.7,44.3 71.7,58.8 37.7,58.8 37.7,60.8 66,60.8 
				66,77.6 			"/>
			<path d="M70.7,45.3v12.5h-34v4H65v14.8H32.3l-6.9-4l-8.2-6.3V53.8l5-8.5H70.7 M72.7,43.3h-2H22.2h-1.1l-0.6,1l-5,8.5l-0.3,0.5
				v0.5v12.5v1l0.8,0.6l8.2,6.3l0.1,0.1l0.1,0.1l6.9,4l0.5,0.3h0.5H65h2v-2V61.8v-2h3.7h2v-2V45.3V43.3L72.7,43.3z"/>
		</g>
		<g>
			<polygon class="st2" points="19.9,145.4 13.2,113.3 65.4,110.3 72.9,137.4 55.9,137.4 52.1,128.3 48.4,128.3 51.5,140.8 
				38.8,140.8 34.4,128.3 29,128.3 35.3,145.4 			"/>
			<g>
				<path d="M64.7,111.4l6.9,25H56.5l-3.8-9.1h-5.7l3.1,12.5H39.5l-4.4-12.5h-7.5l6.3,17.1H20.7l-6.3-30.1L64.7,111.4 M66.2,109.3
					l-1.6,0.1l-50.3,2.8l-2.3,0.1l0.5,2.3l6.3,30.1l0.3,1.6h1.6h13.2h2.9l-1-2.7l-5.3-14.4h3.3l3.9,11.2l0.5,1.3h1.4h10.7h2.6
					l-0.6-2.5l-2.5-10h1.8l3.3,7.9l0.5,1.2h1.3h15.1h2.6l-0.7-2.5l-6.9-25L66.2,109.3L66.2,109.3z"/>
			</g>
		</g>
		<g>
			<g>
				<path class="st3" d="M37.3,112.4L23.4,99.9v-7.4H12.1V77.4h61.7v27.3l-15.2,7.6H37.3z M49.9,101.8v-8.7h-9.1L49.9,101.8z"/>
			</g>
			<g>
				<path d="M72.9,78.4v25.7l-14.5,7.3H37.7L24.4,99.5v-8H13.1V78.4H72.9 M50.9,104.1V92.1H38.3L50.9,104.1 M74.9,76.4h-2H13.1h-2v2
					v13.1v2h2h9.3v6v0.9l0.7,0.6l13.2,11.9l0.6,0.5h0.8h20.8h0.5l0.4-0.2l14.5-7.3l1.1-0.6v-1.2V78.4V76.4L74.9,76.4z M43.3,94.1
					h5.6v5.4L43.3,94.1L43.3,94.1z"/>
			</g>
		</g>
		<g>
			<g>
				<path class="st1" d="M11.2,169.9l13.6-8.9H11.5v-16.2h63v23.6l-18,15.8l-11.3,0.8l-11.2-9.3L20.4,189L11.2,169.9z M51.1,168.2
					V161h-9.3L51.1,168.2z"/>
			</g>
			<g>
				<path d="M73.5,145.8v22.1l-17.4,15.3l-10.5,0.7l-11.6-9.7l-13.2,13.1l-8.2-17.1L28.2,160H12.5v-14.2H73.5 M52.1,170.3V160H38.9
					L52.1,170.3 M75.5,143.8h-2h-61h-2v2V160v2h2h9l-10.1,6.6l-1.5,1l0.8,1.6l8.2,17.1l1.2,2.5l2-2L34,177l10.2,8.5l0.6,0.5l0.8-0.1
					l10.5-0.7l0.7,0l0.5-0.4l17.4-15.3l0.7-0.6v-0.9v-22.1V143.8L75.5,143.8z M44.8,162h5.4v4.2L44.8,162L44.8,162z"/>
			</g>
		</g>
	</g>
	<g>
		<g>
			<path class="st3" d="M22.5,628.6l-12.2-12.9V593h62.9v21.9L57,628.6H22.5z M44.7,615.2l3.9-3.3v-2.4H37.1l0.3,3.3l2.9,2.5H44.7z"
				/>
			<path d="M72.3,594v20.4l-15.6,13.2H22.9l-11.6-12.3V594H72.3 M40,616.2h5l4.5-3.9v-3.9H36l0.5,4.8L40,616.2 M74.3,592h-2H11.3h-2
				v2v21.3v0.8l0.5,0.6L21.4,629l0.6,0.6h0.9h33.7h0.7l0.6-0.5l15.6-13.2l0.7-0.6v-0.9V594V592L74.3,592z M38.2,610.5h9.4v0.9
				l-3.3,2.8h-3.6l-2.3-2L38.2,610.5L38.2,610.5z"/>
		</g>
		<g>
			<polygon class="st0" points="12.1,602 12.1,571 71,571 71,583.7 29.7,588.2 29.7,602 			"/>
			<path d="M70,572v10.7l-41.3,4.6V601H13.1v-29H70 M72,570h-2H13.1h-2v2v29v2h2h15.6h2v-2v-11.9l39.5-4.4l1.8-0.2v-1.8V572V570
				L72,570z"/>
		</g>
		<g>
			<path class="st3" d="M7,560.7l16-9.3H9.8V535h64.2v24l-18.4,14.7H44.1l-11.4-7.4l-8.5,9.8L7,560.7z M53.1,557.9v-7.4h-9.5
				L53.1,557.9z"/>
			<path d="M72.9,536v22.5l-17.8,14.2H44.4l-11.9-7.7l-8.4,9.7L8.7,560.9l18-10.4h-16V536H72.9 M54.1,560v-10.4H40.7L54.1,560
				 M74.9,534h-2H10.8h-2v2v14.5v2h2h8.6l-11.6,6.7l-2.4,1.4l2.1,1.8l15.4,13.7l1.5,1.3l1.3-1.5l7.3-8.4l10.4,6.8l0.5,0.3h0.6h10.7
				h0.7l0.5-0.4L74.1,560l0.8-0.6v-1V536V534L74.9,534z M46.5,551.5h5.6v4.3L46.5,551.5L46.5,551.5z"/>
		</g>
		<g>
			<path class="st1" d="M24.5,536.8l-11.2-11.4v-18.6L25,496.2H55l13.3,10.5v18.2L55,536.8H24.5z M41.3,522.7l7.7-6.7l-7.7-5.2
				l-6.8,5.2L41.3,522.7z"/>
			<path d="M54.6,497.2l12.7,10v17.3l-12.7,11.3H24.9l-10.6-10.8v-17.8l11.1-10H54.6 M41.3,524l9.3-8.2l-9.3-6.4l-8.3,6.4L41.3,524
				 M55.3,495.2h-0.7H25.4h-0.8l-0.6,0.5l-11.1,10l-0.7,0.6v0.9v17.8v0.8l0.6,0.6l10.6,10.8l0.6,0.6h0.8h29.7h0.8l0.6-0.5L68.6,526
				l0.7-0.6v-0.9v-17.3v-1l-0.8-0.6l-12.7-10L55.3,495.2L55.3,495.2z M36,516l5.3-4.1l6,4.1l-6,5.3L36,516L36,516z"/>
		</g>
		<g>
			<polygon class="st2" points="11.4,494.4 10.8,484.3 23.5,480.7 7.3,473.4 7.3,460 72.2,449.3 72.2,470.4 41.4,473.7 58.3,479.9 
				39.6,485.6 72.6,491 65.9,508.5 			"/>
			<path d="M71.2,450.5v19L37,473.2l18.1,6.7l-19.9,6.1l36,5.9l-6,15.5l-53-13.7l-0.5-8.6l14.6-4.1l-18.1-8.2v-11.8L71.2,450.5
				 M73.2,448.2l-2.3,0.4L8,458.9l-1.7,0.3v1.7v11.8v1.3l1.2,0.5l13.1,5.9l-9.3,2.6l-1.6,0.4l0.1,1.6l0.5,8.6l0.1,1.5l1.4,0.4
				l53,13.7l1.7,0.4l0.6-1.7l6-15.5l0.9-2.3l-2.4-0.4L44,485.3l11.7-3.6l5.7-1.7l-5.6-2l-10.1-3.7l25.7-2.7l1.8-0.2v-1.8v-19V448.2
				L73.2,448.2z"/>
		</g>
	</g>
	<g>
		<g>
			<polygon class="st1" points="35.4,417.3 7,416.1 9.2,398.2 36,400.3 72.9,387 71.2,405.1 55,410.7 67.9,415.3 66,434.8 			"/>
			<path d="M71.7,388.5l-1.5,15.9L52,410.7l14.8,5.2l-1.6,17.2l-29.5-16.9l-27.6-1.2l1.9-15.8l26.1,2L71.7,388.5 M74,385.5l-3,1.1
				l-35.2,12.7l-25.7-2l-1.9-0.1l-0.2,1.9l-1.9,15.8L5.9,417l2.2,0.1l27.1,1.2l29.1,16.6l2.7,1.5l0.3-3.1l1.6-17.2l0.1-1.6l-1.5-0.5
				l-9.4-3.3l12.9-4.5l1.2-0.4l0.1-1.3l1.5-15.9L74,385.5L74,385.5z"/>
		</g>
		<g>
			<path class="st3" d="M6.4,383.3l16-9.2H9.2v-16.5h64.2v24l-18.4,14.7H43.5l-11.4-7.4l-8.5,9.8L6.4,383.3z M52.6,378.1v-5h-8.7
				L52.6,378.1z"/>
			<path d="M72.3,358.5V381l-17.8,14.2H43.8l-11.9-7.7l-8.4,9.7L8.1,383.4l18-10.4h-16v-14.5H72.3 M53.6,379.8v-7.7H40.1L53.6,379.8
				 M74.3,356.5h-2H10.2h-2v2V373v2h2h8.6l-11.6,6.7l-2.4,1.4l2.1,1.8l15.4,13.7l1.5,1.3l1.3-1.5l7.3-8.4l10.4,6.8l0.5,0.3h0.6h10.7
				h0.7l0.5-0.4l17.8-14.2l0.8-0.6v-1v-22.5V356.5L74.3,356.5z M47.6,374.1h3.9v2.2L47.6,374.1L47.6,374.1z"/>
		</g>
		<g>
			<path class="st0" d="M23.3,363.1l-11.2-11.4v-18.6l11.7-10.6h29.9L67.1,333v18.2l-13.3,11.8H23.3z M40.1,349l7.7-6.7l-7.7-5.2
				l-6.8,5.2L40.1,349z"/>
			<path d="M53.4,323.5l12.7,10v17.3l-12.7,11.3H23.7l-10.6-10.8v-17.8l11.1-10H53.4 M40.1,350.4l9.3-8.2l-9.3-6.4l-8.3,6.4
				L40.1,350.4 M54.1,321.5h-0.7H24.2h-0.8l-0.6,0.5l-11.1,10l-0.7,0.6v0.9v17.8v0.8l0.6,0.6l10.6,10.8l0.6,0.6h0.8h29.7h0.8
				l0.6-0.5l12.7-11.3l0.7-0.6v-0.9v-17.3v-1l-0.8-0.6l-12.7-10L54.1,321.5L54.1,321.5z M34.8,342.4l5.3-4.1l6,4.1l-6,5.3
				L34.8,342.4L34.8,342.4z"/>
		</g>
		<g>
			<polygon class="st2" points="7.8,319.6 40.3,312.8 9.6,303.4 34,295.8 8.5,296.2 8.5,278.1 73.5,286.1 73.5,300 62,303.5 
				73.7,307.8 69.7,320.6 19.7,335.5 			"/>
			<g>
				<path d="M9.5,279.3l63,7.7v12.3l-13.6,4.1l13.6,5l-3.5,11.4l-48.9,14.6L9.5,320.2l34.8-7.3L13,303.4l28-8.6l-31.5,0.5V279.3
					 M7.5,277v2.3v15.9v2l2,0l17.6-0.3l-14.7,4.5l-6.2,1.9l6.2,1.9l23.8,7.3l-27.1,5.7L6,318.9l1.9,2.5l10.6,14.1l0.8,1.1l1.3-0.4
					l48.9-14.6l1-0.3l0.3-1l3.5-11.4l0.6-1.8l-1.8-0.7l-8-2.9l7.9-2.4l1.4-0.4v-1.5V287v-1.8l-1.8-0.2l-63-7.7L7.5,277L7.5,277z"/>
			</g>
		</g>
		<g>
			<polygon class="st1" points="16.8,290 9.3,253.9 68.4,250.5 76.8,281 57.7,281 53.4,270.6 48.9,270.6 52.5,284.8 38.4,284.8 
				33.4,270.6 26.9,270.6 34.1,290 			"/>
			<path d="M67.6,251.6l7.9,28.4H58.3l-4.3-10.3h-6.4l3.6,14.2H39.1l-5-14.2h-8.6l7.1,19.4h-15l-7.1-34.2L67.6,251.6 M69.1,249.5
				l-1.6,0.1l-57.1,3.2l-2.3,0.1l0.5,2.3l7.1,34.2L16,291h1.6h15h2.9l-1-2.7l-6.1-16.7h4.3l4.5,12.9l0.5,1.3h1.4h12.1h2.6l-0.6-2.5
				l-2.9-11.7h2.5l3.8,9.1L57,282h1.3h17.1h2.6l-0.7-2.5L69.6,251L69.1,249.5L69.1,249.5z"/>
		</g>
		<g>
			<polygon class="st3" points="7.8,243.9 40.3,237.1 9.6,227.7 34,220.1 8.5,220.5 8.5,202.4 73.5,210.4 73.5,224.3 62,227.8 
				73.7,232.1 69.7,244.9 19.7,259.8 			"/>
			<path d="M9.5,203.6l63,7.7v12.3l-13.6,4.1l13.6,5l-3.5,11.4l-48.9,14.6L9.5,244.5l34.8-7.3L13,227.7l28-8.6l-31.5,0.5V203.6
				 M7.5,201.3v2.3v15.9v2l2,0l17.6-0.3l-14.7,4.5l-6.2,1.9l6.2,1.9l23.8,7.3l-27.1,5.7L6,243.2l1.9,2.5l10.6,14.1l0.8,1.1l1.3-0.4
				L69.5,246l1-0.3l0.3-1l3.5-11.4l0.6-1.8l-1.8-0.7l-8-2.9l7.9-2.4l1.4-0.4v-1.5v-12.3v-1.8l-1.8-0.2l-63-7.7L7.5,201.3L7.5,201.3z
				"/>
		</g>
	</g>
</g>
</svg>
